<svg id="Layer_1" data-name="Layer 1" xmlns="http://www.w3.org/2000/svg" viewBox="0 0 522.4248 64.6907"><defs><style>.cls-1{fill:#fff;}</style></defs><title>byuis-logo-white</title><path class="cls-1" d="M19.6992,54.24V18.48H36.7076a8.1521,8.1521,0,0,0,1.0778-.0118c0.2616-.0351.4938,0.3905,0.7541,0.0314a1.0361,1.0361,0,0,0,.9886.2146,6.9065,6.9065,0,0,1,.9565.0163,30.7231,30.7231,0,0,1,3.7874.99,9.0837,9.0837,0,0,1,2.1673,1.416,7.0614,7.0614,0,0,1,1.7258,1.8886,6.0207,6.0207,0,0,0,.7948,1.5977,13.132,13.132,0,0,1,0,5.1983c-0.5771.83-.7674,1.8814-1.5618,2.5964a10.3494,10.3494,0,0,1-2.5168,2.04,1.27,1.27,0,0,0-.3078.4771,6.7931,6.7931,0,0,1,2.9,1.3361,7.68,7.68,0,0,1,2.7694,4.0072A8.6911,8.6911,0,0,1,50.62,42.153a11.2093,11.2093,0,0,1-.0018,2.5139,9.6565,9.6565,0,0,1-.7021,3.1809,9.4841,9.4841,0,0,1-2.6155,3.5831,10.1027,10.1027,0,0,1-3.3572,1.735,33.4422,33.4422,0,0,1-3.9629.8751,56.2718,56.2718,0,0,1-6.8631.1872C30.84,54.2819,28.56,54.24,26.281,54.24H19.6992ZM28.8,47.04c2.7263,0,5.3577.0371,7.9869-.022a7.6836,7.6836,0,0,0,2.4246-.4878,4.1683,4.1683,0,0,0,1.5641-1.0829,2.918,2.918,0,0,0,.7126-1.48,6.5589,6.5589,0,0,0-.0531-2.3621,3.4847,3.4847,0,0,0-.7849-1.5928,5.1805,5.1805,0,0,0-3.7751-1.58C34.2926,38.3177,31.7013,38.4,29.16,38.4l-0.3.3a0.2423,0.2423,0,0,0-.0574.0949C28.8,41.507,28.8,44.2191,28.8,47.04Zm0.021-14.4c2.66,0,5.2118.0017,7.7636-.0008a3.164,3.164,0,0,0,2.53-1.0939,12.5333,12.5333,0,0,0,.9652-1.3986c0-.4692-0.0059-0.8282.001-1.1869a3.2353,3.2353,0,0,0-3.2779-3.2841c-2.2725.0183-4.5453,0.0044-6.818,0.0044H28.821v6.96Z" transform="translate(-19.6992 -18.4371)"/><path class="cls-1" d="M85.2,18.5137h9.12v1.2112q0,10.6144,0,21.2288a8.1519,8.1519,0,0,0,.8787,3.4724,4.9,4.9,0,0,0,4.0474,2.6187,8.2763,8.2763,0,0,0,1.22.22,9.1843,9.1843,0,0,0,4.4232-1.1816,4.0275,4.0275,0,0,0,1.634-2.1368,7.84,7.84,0,0,0,.533-2.786c-0.03-7.5159-.0164-15.032-0.0164-22.5481a74.125,74.125,0,0,1,9.12-.0922v1.1618c0,7.2363.0076,14.4725-.0149,21.7087a3.1372,3.1372,0,0,1-.1832,1.723,4.9306,4.9306,0,0,0-.2394,1.5626,12.5438,12.5438,0,0,1-1.2787,3.9167,9.5212,9.5212,0,0,1-4.2542,4.2937,11.9339,11.9339,0,0,1-2.6243,1.195c-0.4322.0988-.8409,0.3132-1.2752,0.3866-0.7195.1215-1.4707,0.0921-2.1737,0.2666a20.8373,20.8373,0,0,1-5.66.1782,15.6205,15.6205,0,0,1-3.5573-.6121,17.4392,17.4392,0,0,1-3.152-1.0964,10.0752,10.0752,0,0,1-4.1429-3.7282,16.3907,16.3907,0,0,1-.8187-1.46c-0.2315-.4616-0.416-0.9467-0.626-1.4193a5.8748,5.8748,0,0,0-.4793-1.6006c0.1018-.8636-0.4256-1.6677-0.24-2.5392-0.483-2.5529-.1766-5.1309-0.2284-7.6967C85.1591,32.164,85.2,29.5645,85.2,26.9659V18.5137Z" transform="translate(-19.6992 -18.4371)"/><path class="cls-1" d="M504.9376,29.9808V18.51h7.8933V54.2084h-7.3737V50.9837a1.7486,1.7486,0,0,0-.4877.3753,4.3809,4.3809,0,0,1-2.0319,2.1287,10.2568,10.2568,0,0,1-4.8847,1.2557,15.3793,15.3793,0,0,1-3.25-.3063,12.7122,12.7122,0,0,1-2.1019-.6952,9.8766,9.8766,0,0,1-1.85-1.0281,12.8635,12.8635,0,0,1-2.0784-1.62,17.0511,17.0511,0,0,1-1.8016-2.364,12.4231,12.4231,0,0,1-1.1912-2.1422c-0.3091-.7493-0.4042-1.5813-0.7379-2.3329a0.2772,0.2772,0,0,1-.0016-0.1191c0.0683-1.1764-.452-2.32-0.2313-3.4968a22.425,22.425,0,0,1,.5847-3.2316,22.0347,22.0347,0,0,1,1.083-2.7919,9.9825,9.9825,0,0,1,2.0864-2.9707,15.3766,15.3766,0,0,1,2.2616-2.0553,14.4332,14.4332,0,0,1,3.2147-1.5125,12.6485,12.6485,0,0,1,2.4344-.5333,9.3062,9.3062,0,0,1,1.9441-.1687,13.15,13.15,0,0,1,4.1082,1.0718,4.6161,4.6161,0,0,1,2.1028,1.5485A0.8,0.8,0,0,0,504.9376,29.9808Zm0.2652,11.2634a9.6066,9.6066,0,0,0-.21-1.9713,7.5531,7.5531,0,0,0-3.2548-4.2628,6.5572,6.5572,0,0,0-4.8672-.406,4.6783,4.6783,0,0,0-2.3563,1.4716c-0.836,1.0682-1.85,2.13-1.8127,3.6628a4.7248,4.7248,0,0,0,.1137,3.6019,7.1119,7.1119,0,0,0,1.7822,2.8645,7.04,7.04,0,0,0,3.8208,1.77,5.5394,5.5394,0,0,0,3.1643-.7044C503.5753,46.3434,505.4214,43.42,505.2028,41.2443Z" transform="translate(-19.6992 -18.4371)"/><path class="cls-1" d="M327.6011,30.0358V18.52h7.8053c0.1893,1.1222.2637,29.5006,0.0854,35.6733h-7.4475V51.12h-0.3328a5.667,5.667,0,0,1-3.583,3.0934,6.7442,6.7442,0,0,1-1.95.4846c-1.1537.0779-2.3164,0.0217-3.4754,0.0217-0.3969-.4163-0.95-0.1748-1.4193-0.333a16.84,16.84,0,0,0-2.52-.867c-0.8407-.7826-2.0115-1.103-2.7633-2.0248-0.6674-.8183-1.5119-1.4664-2.1327-2.3507a13.9961,13.9961,0,0,1-1.972-4.349,13.6786,13.6786,0,0,0-.2651-1.924,4.493,4.493,0,0,1-.1717-1.8393,16.14,16.14,0,0,1,.219-1.9387c0.068-.6.3189-1.162,0.4183-1.7394a10.6951,10.6951,0,0,1,2.2677-4.8063,12.0454,12.0454,0,0,1,6.2744-4.47,6.405,6.405,0,0,1,2.4408-.4887c0.371,0.0432.6878-.2509,1.0984-0.2457a15.4645,15.4645,0,0,1,4.2339.7952A11.6344,11.6344,0,0,1,327.6011,30.0358Zm0.27,10.6209a7.1744,7.1744,0,0,0-.959-3.1194A6.931,6.931,0,0,0,322.859,34.32c-1.5751-.0019-3.1384-0.1036-4.5447.9267a13.32,13.32,0,0,0-1.3876,1.2451c-1.6594,1.6089-1.9035,3.6787-1.8067,5.8433,0.4027,0.4125.1494,1.05,0.495,1.4727a14.1992,14.1992,0,0,1,.8921,1.4395,5.2889,5.2889,0,0,0,2.6788,2.23,5.1607,5.1607,0,0,0,3.4215.3366,7.246,7.246,0,0,0,3.242-1.76A7.1224,7.1224,0,0,0,327.8706,40.6567Z" transform="translate(-19.6992 -18.4371)"/><path class="cls-1" d="M233.214,52.0373a1.1433,1.1433,0,0,0-.1321.1233,0.1942,0.1942,0,0,0-.04.1021C233.04,56.2555,233.04,60.2483,233.04,64.28h-7.68V63.2851q0-17.033-.0091-34.0659a1.3154,1.3154,0,0,0-.33-1.3478h7.523v3.228a2.4135,2.4135,0,0,0,.49-0.38c1.0042-1.5893,1.4411-1.8329,3.2384-2.6791a6.96,6.96,0,0,1,3.1988-.6818c0.56,0.0111,1.12.0053,1.6793,0.0013a10.84,10.84,0,0,1,4.1578.9673,12.862,12.862,0,0,1,7.4175,8.523,14.446,14.446,0,0,1,.4677,2.8019c0.0335,0.5979.0268,1.2,0.0025,1.7988a13.2275,13.2275,0,0,1-1.3751,5.4276,23.835,23.835,0,0,1-1.2616,2.3551,1.0764,1.0764,0,0,1-.1954.2766c-0.7877.6175-1.2864,1.5028-2.0819,2.136a16.0925,16.0925,0,0,1-2.5646,1.6482,9.6855,9.6855,0,0,1-4.788,1.1879c-0.52-.01-1.04-0.0049-1.5593-0.001a9.0345,9.0345,0,0,1-3.92-.9617,6.33,6.33,0,0,1-1.8791-1.26A1.699,1.699,0,0,0,233.214,52.0373Zm12.2611-11.1289a5.6384,5.6384,0,0,0-.0274-1.7044,7.14,7.14,0,0,0-2.7572-3.9707,5.9817,5.9817,0,0,0-2.7512-1.1416,6.4363,6.4363,0,0,0-4.1861,1.163,7.4954,7.4954,0,0,0-2.953,5.2544,5.8946,5.8946,0,0,0,.4872,2.91,6.7613,6.7613,0,0,0,2.546,3.34,6.15,6.15,0,0,0,3.6449,1.0208A6.4362,6.4362,0,0,0,245.4752,40.9084Z" transform="translate(-19.6992 -18.4371)"/><path class="cls-1" d="M187.9166,30.1109v-11.59h7.7967a52.66,52.66,0,0,0-.1069,5.8133c-0.0288,1.9993-.0064,3.9994-0.0064,5.9992V42.2117c0,2-.0386,4,0.0109,5.999,0.0488,1.9667.1869,3.9312,0.2829,5.84a1.3164,1.3164,0,0,1-.1332.1462,0.1918,0.1918,0,0,1-.1016.0415c-2.3939.0019-4.7878,0.0017-7.2662,0.0017V51.0205a1.2367,1.2367,0,0,0-.4615.2539c-0.4618,1.349-1.6918,1.92-2.7337,2.6516a3.0118,3.0118,0,0,1-1.5651.518c-0.52.0144-.9661,0.26-1.46,0.27a15.0035,15.0035,0,0,1-2.9937-.0253,12.4846,12.4846,0,0,1-5.49-2.0813,17.0415,17.0415,0,0,1-2.16-1.7126,13.7059,13.7059,0,0,1-2.8028-4.3487c-0.245-.6193-0.4066-1.2714-0.6111-1.907a1.45,1.45,0,0,1-.112-0.1922c-0.0867-.726-0.1966-1.4513-0.2353-2.18a8.7321,8.7321,0,0,1,.0284-2.2712c0.13-.5985.1085-1.2147,0.2871-1.794a16.1165,16.1165,0,0,1,1.6078-4.13,10.55,10.55,0,0,1,1.777-2.3892c0.7122-.6212,1.3579-1.322,2.0931-1.9128a12.3209,12.3209,0,0,1,4.1177-1.9256,8.3742,8.3742,0,0,1,3.8665-.4388,8.5028,8.5028,0,0,1,1.99.4069,18.67,18.67,0,0,0,1.9145.5834,7.2878,7.2878,0,0,1,1.3328.8348C187.128,29.4694,187.4478,29.7441,187.9166,30.1109Zm-12.462,11.12a4.1286,4.1286,0,0,0,.4711,2.5126c0.18,0.4053.4272,0.78,0.6316,1.1755a5.394,5.394,0,0,0,2.8762,2.5436,5.51,5.51,0,0,0,3.6441.3417,6.6187,6.6187,0,0,0,4.1233-3.1529,6.7036,6.7036,0,0,0,.9528-4.0324c-0.0381-.41-0.16-0.8113-0.2325-1.2185a6.8815,6.8815,0,0,0-2.4592-3.8872,5.1371,5.1371,0,0,0-2.23-1.0012,6.542,6.542,0,0,0-3.71.177,6.168,6.168,0,0,0-3.172,2.9285A6.0741,6.0741,0,0,0,175.4545,41.2311Z" transform="translate(-19.6992 -18.4371)"/><path class="cls-1" d="M418.5336,50.6768L423.4883,44.4a6.9668,6.9668,0,0,0,2.6994,1.9891,7.6533,7.6533,0,0,0,2.6083.6584,0.9455,0.9455,0,0,1,.8911.1771,0.4609,0.4609,0,0,0,.4417.0447,12.5259,12.5259,0,0,1,2.25-.6511,3.0994,3.0994,0,0,0,2.0246-1.7836,3.102,3.102,0,0,1,.2721-0.4182l-0.2567-1.4846A7.1172,7.1172,0,0,0,430.517,40.43a11.7975,11.7975,0,0,1-1.6763-.5906c-0.5064-.2518-1.08-0.2338-1.6075-0.4628-2.1391-.9288-3.0415-1.0195-4.8325-2.5249a9.4487,9.4487,0,0,1-2.5118-3.26,7.0082,7.0082,0,0,1-.6108-2.6262q0.0136-1.259.0006-2.5183a7.8157,7.8157,0,0,1,1.3668-4.228,11.0559,11.0559,0,0,1,5.1842-4.2,17.0161,17.0161,0,0,1,3.1288-.86,15.4561,15.4561,0,0,1,4.3438-.1579,14.994,14.994,0,0,1,4.6715,1.1357,21.8768,21.8768,0,0,1,3.3693,1.7073c0.4147,0.2594.7979,0.5692,1.2582,0.9014l-4.6818,5.8775a7.56,7.56,0,0,0-3.5235-2.2924,5.0962,5.0962,0,0,0-3.4733-.231c-0.57.2031-1.0974,0.4234-1.6438,0.6747a3.2976,3.2976,0,0,0-1.2962,1.6436,1.6018,1.6018,0,0,0,.0722.8727c0.0278,0.1854.0892,0.3658,0.185,0.7434a19.6386,19.6386,0,0,1,1.6455,1.3648,1.9051,1.9051,0,0,0,.8328.3293,19.1351,19.1351,0,0,0,2.7013,1.0074,20.4644,20.4644,0,0,1,3.259,1.1079,13.201,13.201,0,0,1,4.0614,2.3634,9.5876,9.5876,0,0,1,2.3077,3.9653,4.478,4.478,0,0,1,.2457,1.4621,1.53,1.53,0,0,0,.2041,1.24,0.8672,0.8672,0,0,1,.0025.8063,4.1406,4.1406,0,0,0-.23,1.71,10.06,10.06,0,0,1-.5451,2.29,10.8244,10.8244,0,0,1-2.5187,3.755,12.2422,12.2422,0,0,1-2.8373,1.8383,16.0637,16.0637,0,0,1-4.288,1.2528,25.8088,25.8088,0,0,1-4.8262.16,12.7346,12.7346,0,0,1-2.8974-.5048,17.9,17.9,0,0,1-2.44-.7633,16.374,16.374,0,0,1-2.2949-1.1124A5.8778,5.8778,0,0,1,418.5336,50.6768Z" transform="translate(-19.6992 -18.4371)"/><path class="cls-1" d="M65.1814,32.8734H65.595Q67.36,29.2815,69.12,25.7q1.76-3.5889,3.5158-7.1849H83.0591c-1.03,1.7072-2.0463,3.3471-3.0146,5.0147-0.43.74-.8432,1.4914-1.2679,2.2355-0.9988,1.75-1.9853,3.5057-3.0588,5.2129-0.4928.7837-.8269,1.6683-1.33,2.444-0.8157,1.2569-1.5045,2.5866-2.3108,3.85-0.8,1.2531-1.4591,2.5961-2.2659,4.055V54.2158h-9.05V40.83c-0.7723-1.3253-1.4847-2.51-2.16-3.7152-0.8943-1.5971-1.8-3.186-2.8-4.7208-0.3865-.5934-0.7036-1.2341-1.0512-1.8481C53.8866,29.02,52.9554,27.53,52.12,25.9953c-1.0161-1.8657-2.226-3.616-3.1678-5.522-0.3281-.664-0.7484-1.2825-1.14-1.9452h10.422c0.41,0.8374.8486,1.7329,1.2863,2.6291q2.5593,5.24,5.1158,10.4816C64.83,32.0369,64.9947,32.449,65.1814,32.8734Z" transform="translate(-19.6992 -18.4371)"/><path class="cls-1" d="M514.0263,30.3668c2.6069-.7361,5.1292-1.2591,7.5717-1.8678,1.1265,2.7091,2.2733,5.2749,3.2624,7.9,0.9773,2.5937,2.1908,5.0951,3.07,7.8025a1.1836,1.1836,0,0,0,.4985-0.3739c0.3084-1.3889,1.1059-2.583,1.5186-3.9351,0.2776-.91.7455-1.7643,1.06-2.6774,0.372-1.08.8948-2.1076,1.3056-3.1757s0.9069-2.1016,1.2438-3.2055a16.6426,16.6426,0,0,1,1.0826-2.274,1.5388,1.5388,0,0,1,.6058.0108c2.2188,0.8956,4.6348,1.1009,6.879,1.9152-0.7172,1.7131-1.561,3.3012-2.2123,4.98-0.4535,1.1692-1.1125,2.258-1.5786,3.4232-0.7,1.75-1.623,3.3988-2.2452,5.1885-0.41,1.18-1.112,2.256-1.5973,3.4145-0.8706,2.0791-1.9037,4.0852-2.7141,6.1921-0.3838.998-.9267,1.9339-1.3729,2.9092-0.43.94-.8721,1.8794-1.229,2.8483-0.3586.9733-.9151,1.8485-1.2326,2.8514a22.8023,22.8023,0,0,1-1.43,2.9875c-0.4164-.09-0.8889.2169-1.28-0.2383a0.2274,0.2274,0,0,0-.117-0.0026,16.6906,16.6906,0,0,1-2.4244-.2058c-1.347-.2055-2.7271-0.1927-4.0928-0.2786a0.81,0.81,0,0,1-.2433-0.141q1.1629-2.3249,2.3306-4.6584,1.4952-2.9789,2.9983-5.9538a1.4437,1.4437,0,0,0,.015-1.4914,19.5492,19.5492,0,0,1-.7427-1.8495c-0.1877-.4422-0.4521-0.8461-0.6418-1.2932-0.4762-1.1224-1.0542-2.2029-1.502-3.3356-0.6932-1.7534-1.5959-3.4127-2.2358-5.1918-0.3612-1.0041-.9252-1.9338-1.3714-2.9092-0.43-.94-0.8036-1.907-1.2441-2.8423a25.2506,25.2506,0,0,1-1.2028-2.8622A10.0041,10.0041,0,0,1,514.0263,30.3668Z" transform="translate(-19.6992 -18.4371)"/><path class="cls-1" d="M476.3973,54.1978v-4.02a7.6753,7.6753,0,0,0-.4725.8068,5.7811,5.7811,0,0,1-1.7821,2.2522,7.53,7.53,0,0,1-2.7162,1.2481,8.2507,8.2507,0,0,1-3.3758.2031,10.23,10.23,0,0,1-3.6381-1.0355,7.7188,7.7188,0,0,1-3.3787-4.0751,22.8556,22.8556,0,0,1-.7684-4.133,53.7376,53.7376,0,0,1-.1752-5.6632c-0.0471-1.9173-.01-3.8366-0.01-5.755s0-3.8369.0015-5.7553a0.6736,0.6736,0,0,1,.0471-0.1483h7.5909c0.012,0.2547.0386,0.5573,0.0387,0.86,0.0026,4.7561-.0083,9.5123.0125,14.2683a6.3958,6.3958,0,0,0,.26,2.1673,3.6448,3.6448,0,0,0,2.4153,2.3243,3.5046,3.5046,0,0,0,2.7888,0,2.9467,2.9467,0,0,0,1.4987-1.0211,5.4,5.4,0,0,0,1.1877-3.5907q-0.0049-6.8944-.0013-13.7887V28.12H483.54V54.1978h-7.1432Z" transform="translate(-19.6992 -18.4371)"/><path class="cls-1" d="M296.3534,34.6334a8,8,0,0,0-3.1361-.3126,3.6914,3.6914,0,0,1-.8226.4671,2.6662,2.6662,0,0,0-1.7594,2.0233,4.0229,4.0229,0,0,0-.243,1.4611q0.0191,7.4938.0077,14.9876V54.215h-7.6352V28.3163c2.1451,0.1184,4.242-.42,6.3729-0.238,0.1533,0.0131.3087,0.0017,0.5467,0.0017v3.23a1.6317,1.6317,0,0,0,.5656-0.3381,5.9422,5.9422,0,0,1,1.7255-1.9087,7.7529,7.7529,0,0,1,3.1024-1.4623,7.35,7.35,0,0,1,.9806-0.2315,5.0248,5.0248,0,0,1,1.0774-.0027c0.7636,0.0794,1.5281.1879,2.2834,0.2973,0.7122,0.1032,1.3786.5109,2.11,0.68a2.9268,2.9268,0,0,1,.93.6375,8.5153,8.5153,0,0,1,2.9448,4.3932,7.5556,7.5556,0,0,1,.3437,1.6529,27.5522,27.5522,0,0,1,.268,3.7373C305.944,40.04,306,41.3219,306,42.6009v11.51a0.56,0.56,0,0,1-.08.0858,0.1925,0.1925,0,0,1-.1017.0412c-2.4726.0019-4.9452,0.0017-7.4985,0.0017V53.0354c0-4.8761-.0109-9.7521.0076-14.6281a3.7052,3.7052,0,0,0-1.27-3.0761C296.813,35.1267,296.6023,34.8822,296.3534,34.6334Z" transform="translate(-19.6992 -18.4371)"/><path class="cls-1" d="M223.5467,35.1168a41.91,41.91,0,0,1-4.2039,2.7148c-1.437.8922-2.8281,1.8581-4.2425,2.7869q-2.0725,1.361-4.1517,2.7117c-1.3723.8917-2.7862,1.7217-4.2808,2.7482a4.2538,4.2538,0,0,1,.6151.2941,2.7584,2.7584,0,0,1,.4262.42,3.4449,3.4449,0,0,0,2.1179.9673,5.01,5.01,0,0,0,1.2184.2256,12.1282,12.1282,0,0,0,6.0382-1.9076c0.5307-.346,1.0677-0.6824,1.63-1.0411l4.0043,5.8012c-1.38.721-2.5862,1.8131-4.1956,2.2383-0.5845.1544-1.0935,0.5923-1.7269,0.7458-0.9837.2385-1.9525,0.51-2.9535,0.702a15.96,15.96,0,0,1-3.3854.1834,13.4784,13.4784,0,0,1-7.8131-2.8544,22.2549,22.2549,0,0,1-3.0052-3.0759,5.6186,5.6186,0,0,1-.5225-0.9761,11.61,11.61,0,0,1-1.44-3.3609,7.34,7.34,0,0,1-.3992-1.8736c0.0174-.5989.0165-1.1991,0.0012-1.7981a13.324,13.324,0,0,1,.8029-4.226A14.8555,14.8555,0,0,1,200.4,32.4594c0.483-.6885,1.2179-1.0961,1.6317-1.8107a14.4089,14.4089,0,0,1,5.7829-2.8456,5.5058,5.5058,0,0,0,1.5615-.2458,2.5415,2.5415,0,0,1,1.6019-.1753,15.5644,15.5644,0,0,1,5.7638,1.4077,15.2782,15.2782,0,0,1,4.9429,3.6763,18.8363,18.8363,0,0,1,1.2771,1.8635C223.1119,34.55,223.279,34.7582,223.5467,35.1168Zm-18.9231,6.3,9.7243-6.4729a3.59,3.59,0,0,0-2.5106-1.1034c-0.6393-.0043-1.2788-0.0066-1.918.0009a5.7075,5.7075,0,0,0-2.4671.9873,8.0066,8.0066,0,0,0-2.4971,3.4013,1.1581,1.1581,0,0,1-.2154.2886C204.798,39.4206,204.2125,40.2982,204.6236,41.4172Z" transform="translate(-19.6992 -18.4371)"/><path class="cls-1" d="M281.0338,35.2316c-2.7989,1.812-5.573,3.6155-8.3549,5.407-2.7447,1.7676-5.4972,3.5231-8.2874,5.31a3.2855,3.2855,0,0,0,1.9908,1.5309,6.0347,6.0347,0,0,0,2.6652.5084,11.8523,11.8523,0,0,0,6.8637-2.8628h0.4515l3.9049,5.7363a27.6688,27.6688,0,0,1-5.2082,2.6857,31.947,31.947,0,0,1-3.8015.9789,19.5524,19.5524,0,0,1-4.23.1579,10.9389,10.9389,0,0,1-2.4294-.4856,14.365,14.365,0,0,1-2.2269-.9833,13.6727,13.6727,0,0,1-4.4313-3.4864,14.636,14.636,0,0,1-2.5151-4.4664A10.0418,10.0418,0,0,1,254.87,42.24a15.1657,15.1657,0,0,0,.01-1.5588,11.421,11.421,0,0,1,1.4351-5.5254,8.5083,8.5083,0,0,1,.6146-1.2988,14.4138,14.4138,0,0,1,2.6265-3.106c0.7086-.497,1.3647-1.0607,2.1291-1.5a23.2589,23.2589,0,0,1,3.1533-1.377,6.6778,6.6778,0,0,1,1.8074-.2675,9.2276,9.2276,0,0,1,1.461-.27,24.657,24.657,0,0,1,3.6375.5135,12.3554,12.3554,0,0,1,3.204,1.2367,8.4266,8.4266,0,0,1,2.3467,1.5928c0.2846,0.3016.6865,0.49,0.9906,0.7763A13.533,13.533,0,0,1,281.0338,35.2316Zm-18.83,6.1955,9.7474-6.4824a3.4005,3.4005,0,0,0-2.6-1.1018,12.0845,12.0845,0,0,0-2.38.0589,5.9808,5.9808,0,0,0-2.711,1.5228,4.9448,4.9448,0,0,0-1.4188,1.9138C262.411,38.57,261.7868,39.8139,262.2039,41.4272Z" transform="translate(-19.6992 -18.4371)"/><path class="cls-1" d="M357.7466,38.8983c-1.0854.6-2.0361,1.44-3.1033,2.0781-1.4487.8666-2.7888,1.8965-4.2672,2.7206-0.9791.5458-1.84,1.2969-2.8581,1.7942a3.6037,3.6037,0,0,0-.5647.4248,3.767,3.767,0,0,0,2.738,1.8085,4.6565,4.6565,0,0,0,2.1711.2794A12.6892,12.6892,0,0,0,357.46,45.87c0.4067-.3189.8675-0.5686,1.3189-0.86l3.8691,5.6643a3.557,3.557,0,0,1-1.5234,1.1688,17.3958,17.3958,0,0,1-5.1,2.1719c-0.3829.5158-.9991,0.15-1.513,0.4145a16.2471,16.2471,0,0,1-5.031.2787c-0.8107-.1816-1.66-0.2774-2.4276-0.5181a13.7407,13.7407,0,0,1-3.0279-1.3759,15.2506,15.2506,0,0,1-3.2926-2.8634,13.929,13.929,0,0,1-2.8118-4.8283,7.9833,7.9833,0,0,1-.4891-3.2807,14.21,14.21,0,0,0,.0028-1.7988,10.1547,10.1547,0,0,1,.88-3.8371,13.0449,13.0449,0,0,1,2.07-3.689,10.0738,10.0738,0,0,1,3.0372-2.75,10.1139,10.1139,0,0,1,2.2537-1.2254,24.0769,24.0769,0,0,0,2.3891-.8875,0.3059,0.3059,0,0,1,.0971-0.051,9.3747,9.3747,0,0,0,2.3-.2446c1.3278-.1071,2.5775.3989,3.8805,0.4817,0.2548,0.4947.8037,0.071,1.1682,0.39a4.6056,4.6056,0,0,0,1.1221.4521c0.3707,0.17.7177,0.3915,1.0768,0.5873a9.8467,9.8467,0,0,1,2.2527,1.5213,7.38,7.38,0,0,0,.8272.6008c0.2221,0.1629.1354,0.6367,0.58,0.5783,0.3376,0.6973,1.0335,1.1217,1.368,1.8323C362.96,34.2746,359.7548,37.788,357.7466,38.8983ZM344.7032,41.28a0.5025,0.5025,0,0,0,.1779-0.0023q2.3015-1.5164,4.6-3.0374a40.8568,40.8568,0,0,1,3.8654-2.4961,2.211,2.211,0,0,0,.9351-0.9816,1.2122,1.2122,0,0,0-.1932-0.2,3.9314,3.9314,0,0,0-2.2112-.7327c-0.8341.047-1.673,0.0074-2.51,0.0161a0.8078,0.8078,0,0,0-.1838.1278A6.8683,6.8683,0,0,0,344.7032,41.28Z" transform="translate(-19.6992 -18.4371)"/><path class="cls-1" d="M166.08,54.2181h-7.7106a5.53,5.53,0,0,0,.2671-2.53c0.0081-3.5985.0182-7.1972-.0044-10.7956a36.985,36.985,0,0,0-.2425-3.7988c-0.8419-2.5514-2.7733-2.9991-5.29-2.7139-0.3445.2451-.8748,0.6017-1.3824,0.9879a3.5238,3.5238,0,0,0-1.2273,2.9644c-0.0373,1.7585-.01,3.5184-0.01,5.2777V54.1961h-7.561c-0.1831-.9965-0.2544-21.5122-0.0784-25.8761,0.3812,0,.7716-0.0029,1.1619,0,1.8877,0.0162,3.7551-.4779,5.7365-0.1693v3.47a25.176,25.176,0,0,1,1.7924-2.0478,8.3187,8.3187,0,0,1,3.8474-2.0039,7.174,7.174,0,0,1,1.9462-.198,13.6215,13.6215,0,0,1,1.4606.2281,8.9538,8.9538,0,0,1,1.5723.262,9.1175,9.1175,0,0,1,1.3258.5506,7.9557,7.9557,0,0,1,2,1.5171,5.6344,5.6344,0,0,1,1.3631,2.0606,25.2631,25.2631,0,0,1,.8249,2.9061,30.8294,30.8294,0,0,1,.2,5.0646c0.0353,1.6787.0077,3.3587,0.0077,5.0381v9.22Z" transform="translate(-19.6992 -18.4371)"/><path class="cls-1" d="M378.12,34.32c-0.5546,0-1.1147-.0218-1.6726.0039a3.5183,3.5183,0,0,0-3.5108,3.2171,26.6691,26.6691,0,0,0-.2068,4.9432c-0.0306,3.8782-.01,7.7568-0.01,11.6378a0.5764,0.5764,0,0,1-.0854.0808,0.2082,0.2082,0,0,1-.1042.0358c-2.3926.0016-4.7853,0.0015-7.205,0.0015-0.0451-8.5811-.09-17.1153-0.14-25.6494a0.9437,0.9437,0,0,0-.2091-0.2706c0.3484,0,.6152.011,0.8809-0.0017,2.0848-.1,4.1694-0.205,6.3449-0.3129a20.7275,20.7275,0,0,0,.2551,3.25,2.7859,2.7859,0,0,1,.2657-0.3775,10.3009,10.3009,0,0,1,3.4828-2.8331,14.0737,14.0737,0,0,1,1.6054-.48,5.1661,5.1661,0,0,1,1.8276-.1943,10.2257,10.2257,0,0,1,5.0295,1.4472,9.1185,9.1185,0,0,1,1.9517,1.8514,9.1894,9.1894,0,0,1,1.4974,3.8172c0.1753,0.7428.0613,1.48,0.2219,2.1841,0.4384,1.9214.1529,3.8565,0.209,5.7828,0.0558,1.9176.0122,3.8381,0.0122,5.7573q0,2.9388-.0026,5.8776a0.3758,0.3758,0,0,1-.0793.1226H380.88V53.1742c0-4.838.0105-9.6761-.0053-14.5141a4.0826,4.0826,0,0,0-2.579-4.1695A0.6993,0.6993,0,0,1,378.12,34.32Z" transform="translate(-19.6992 -18.4371)"/><path class="cls-1" d="M405.3358,28.2779V34.53H401.04v0.9572c0,2.8792.0377,5.7592-.0182,8.6374a2.6443,2.6443,0,0,0,1.48,2.4281A2.3845,2.3845,0,0,0,404.1,47.05a2.2886,2.2886,0,0,1,.5467.1133,1.8647,1.8647,0,0,0,1.0108.086c0.5369-.3738,1.0556-0.0819,1.6227-0.273,0,1.9259.0067,3.7187-.009,5.5113a4.8042,4.8042,0,0,1-.1882.6367,0.9088,0.9088,0,0,0,.1908.9866l-0.3455.3691c-1.5185,0-3.076.0651-4.6247-.0237a12.3613,12.3613,0,0,1-2.8858-.5489A8.4818,8.4818,0,0,1,396.9,52.7715a7.6506,7.6506,0,0,1-2.8066-3.5923,12.7136,12.7136,0,0,1-.7424-4.3757c0.0285-3.0789.0085-6.1583,0.0085-9.2375v-0.98h-4.0281V28.3331h3.9826v-6.111l7.677-2.0027c0.107,1.2812.032,2.6184,0.0454,3.9522,0.0136,1.3547.003,2.71,0.003,4.1062h4.2958Z" transform="translate(-19.6992 -18.4371)"/><path class="cls-1" d="M457.4153,28.2776v6.254H452.88V35.61c0,2.64-.0137,5.28.0109,7.9193a7.6213,7.6213,0,0,0,.2421,1.6974,3.7844,3.7844,0,0,0,1.7119,1.5659c0.6855,0.19,1.3833.3367,2.08,0.4814a0.8221,0.8221,0,0,0,.581-0.0079c0.406-.517,1.13.0882,1.5556-0.5576V54.48a33.8683,33.8683,0,0,1-4.7591-.05,12.5094,12.5094,0,0,1-4.45-1.1132,8.2363,8.2363,0,0,1-2.9795-2.6948,9.2639,9.2639,0,0,1-1.2349-3.2177,13.1382,13.1382,0,0,1-.1887-2.91c-0.0254-3.1972-.01-6.3946-0.01-9.5744l-0.3585-.3585h-3.8352a0.5864,0.5864,0,0,1-.0863-0.0842,0.1986,0.1986,0,0,1-.0384-0.103c-0.0018-1.9936-.0016-3.9872-0.0016-6.0228h3.9284l0.3867-.3867V22.2159c1.1991-.42,2.4545-0.609,3.6586-1.0063,1.2-.3958,2.4462-0.6491,3.7372-0.9817,0.1092,1.2731.0323,2.6095,0.0461,3.9422,0.014,1.355.0031,2.71,0.0031,4.1075h4.5354Z" transform="translate(-19.6992 -18.4371)"/><path class="cls-1" d="M139.6616,18.5219V54.1981h-8.2665c-0.1785-1.0312-.2515-31.23-0.0772-35.6762h8.3437Z" transform="translate(-19.6992 -18.4371)"/><path class="cls-1" d="M306.75,64.4558v18.05h-1.92V62.2092h3.0833c3.14,5.183,6.2141,10.5371,9.5834,15.7357V62.2113h1.917V82.5139h-1.61c-0.3053-.5034-0.6483-1.0832-1.005-1.6545-0.9508-1.5232-1.818-3.0956-2.798-4.6033-0.8926-1.3731-1.6434-2.8377-2.4852-4.2449-0.8261-1.3811-1.7547-2.705-2.5125-4.1213a26.9791,26.9791,0,0,1-1.8122-3.2064A1.2654,1.2654,0,0,0,306.75,64.4558Z" transform="translate(-19.6992 -18.4371)"/><path class="cls-1" d="M360.946,78.014V62.206h1.8124c0.1818,0.9517.25,16.4588,0.0788,20.3145h-1.6035c-1.1652-1.9644-2.3607-3.9929-3.5693-6.0134s-2.422-4.0382-3.6489-6.0477c-1.21-1.9824-2.359-4.004-3.62-5.9614a1.57,1.57,0,0,0-.18.1286,0.1722,0.1722,0,0,0-.0537.0961c-0.0023,5.9154-.0023,11.8309-0.0023,17.7918h-1.8c-0.1785-.9511-0.2454-16.6072-0.0765-20.3155H351.32c0.5758,0.9292,1.21,1.8934,1.7378,2.9356,0.5388,1.064,1.2194,2.0562,1.8371,3.08,0.4425,0.7337.907,1.4492,1.2923,2.2228a24.0921,24.0921,0,0,0,1.7778,2.98c0.5162,0.7437.8246,1.5955,1.3457,2.3255a14.6272,14.6272,0,0,1,1.2766,2.2319A1.0109,1.0109,0,0,0,360.946,78.014Z" transform="translate(-19.6992 -18.4371)"/><path class="cls-1" d="M459.5955,72.8718c0.9747,1.7161,1.66,3.5638,2.6263,5.2788,0.79,1.4021,1.42,2.8946,2.1352,4.378H462.08c-0.75-1.5478-1.5059-3.1136-2.2685-4.6761-0.7459-1.5285-1.4991-3.0534-2.2726-4.6278H452.204v9.3032c-0.731.0639-1.4276,0.0168-2.1636,0.0357V62.206c0.2545-.0137.5552-0.0431,0.856-0.0438,1.7984-.0044,3.5979.0391,5.3946-0.0156a13.3413,13.3413,0,0,1,3.9873.5308,4.3731,4.3731,0,0,1,3.2724,2.891c0.2668,0.931.763,1.961,0.1421,2.9981a4.1962,4.1962,0,0,0-.1309.7832,4.0633,4.0633,0,0,1-2.913,2.94A4.8179,4.8179,0,0,0,459.5955,72.8718ZM452.16,71.561c2.1347-.2,4.18.1754,6.225-0.2562a3.9324,3.9324,0,0,0,2.6669-1.3733,9.2913,9.2913,0,0,0,.7081-1.2308c0-.356.0312-0.7957-0.0086-1.2288-0.0414-.45-0.15-0.8938-0.2318-1.34a3.776,3.776,0,0,0-.9553-1.3358,7.3689,7.3689,0,0,0-3.685-.9181,44.5309,44.5309,0,0,0-4.6118-.0381,0.4838,0.4838,0,0,0-.1046.1423C452.16,66.4585,452.16,68.9346,452.16,71.561Z" transform="translate(-19.6992 -18.4371)"/><path class="cls-1" d="M300.48,72.2446c0,0.5654.0029,0.9654,0,1.3653a12.9182,12.9182,0,0,1-1.0438,4.6069,8.4936,8.4936,0,0,1-2.0495,2.9873,6.4488,6.4488,0,0,1-3.7753,1.605,8.6755,8.6755,0,0,1-.98.2163,7.3566,7.3566,0,0,1-4.972-1.8875,7.7629,7.7629,0,0,1-2.0728-2.7413,9.7179,9.7179,0,0,1-.9625-3.8076,11.7456,11.7456,0,0,0-.215-1.46,5.8655,5.8655,0,0,1,.0037-1.437,21.533,21.533,0,0,1,.7006-4.1459,8.1053,8.1053,0,0,1,4.47-5.163,3.4993,3.4993,0,0,1,1.2484-.4411c1.8788-.0284,3.7892-0.2416,5.4994.9115a3.6023,3.6023,0,0,0,.8976.7,1.711,1.711,0,0,1,.7556.7617,5.8934,5.8934,0,0,1,1.4183,2.1827,11.5473,11.5473,0,0,1,.8854,2.8838A25.27,25.27,0,0,1,300.48,72.2446ZM293.8269,81.12c0.1773-.1157.2684-0.1856,0.3684-0.2387a12.7253,12.7253,0,0,0,1.85-1.0073,4.2582,4.2582,0,0,0,1.0613-1.343,10.003,10.003,0,0,0,1.2194-4.2861,2.2318,2.2318,0,0,1,.2152-1.4725,0.6913,0.6913,0,0,0-.0373-0.6705,0.9147,0.9147,0,0,1-.1794-0.7723,10.3283,10.3283,0,0,0-.71-3.8991,6.7529,6.7529,0,0,0-2.5333-3.1335,4.94,4.94,0,0,0-4.2809-.4395,4.8639,4.8639,0,0,0-2.558,1.8371,9.341,9.341,0,0,0-1.66,5.4111,21.2792,21.2792,0,0,0,.168,3.98,8.9089,8.9089,0,0,0,1.5708,4.0224,4.375,4.375,0,0,0,3.9375,2.0182C292.774,81.0837,293.296,81.12,293.8269,81.12Z" transform="translate(-19.6992 -18.4371)"/><path class="cls-1" d="M409.44,72.24a11.2574,11.2574,0,0,0-.0168-1.6772,8.9273,8.9273,0,0,1,.2729-1.942,10.2094,10.2094,0,0,1,.566-1.6748,7.0692,7.0692,0,0,1,1.8327-2.954,6.5165,6.5165,0,0,1,3.2957-1.8626,8.6174,8.6174,0,0,1,3.3827-.1539,5.286,5.286,0,0,1,2.5122.8535,9.036,9.036,0,0,1,2.574,2.7559,13.113,13.113,0,0,1,1.3787,3.7446,13.8991,13.8991,0,0,1,.2479,3.609c-0.0169.5948-.2053,1.1987-0.22,1.821a7.6985,7.6985,0,0,1-.2428,1.816,14.7007,14.7007,0,0,1-.7031,1.746,8.4933,8.4933,0,0,1-2.5269,3.2655,6.9221,6.9221,0,0,1-2.5,1.1881,5.4841,5.4841,0,0,1-2.1692.235,7.9346,7.9346,0,0,1-3.8209-1.1774,10.3285,10.3285,0,0,1-1.23-1.087,9.4065,9.4065,0,0,1-2.3506-4.4168,6.74,6.74,0,0,1-.2945-2.5309A12.2906,12.2906,0,0,0,409.44,72.24Zm13.9409,0.5208a19.308,19.308,0,0,0-.2278-2.9152,9.897,9.897,0,0,0-1.5876-4.1538,5.1577,5.1577,0,0,0-2.376-1.8025,4.663,4.663,0,0,0-2.9633-.2069,6.2356,6.2356,0,0,0-4.1636,4.162,25.93,25.93,0,0,0-.6916,4.0215,4.3216,4.3216,0,0,0-.0023,1.1948,11.7492,11.7492,0,0,1,.2187,1.2188A8.3442,8.3442,0,0,0,412.8,78.4531a4.8725,4.8725,0,0,0,2.9467,2.47,11.2637,11.2637,0,0,0,2.1895.1954,3.3187,3.3187,0,0,0,1.8317-.4889,6.08,6.08,0,0,0,3.0784-4.138A10.6849,10.6849,0,0,0,423.3809,72.7607Z" transform="translate(-19.6992 -18.4371)"/><path class="cls-1" d="M508.1872,62.1991a6.4114,6.4114,0,0,1,3.81,4.4151l-1.8992.6911a4.9007,4.9007,0,0,0-2-3.0559,2.6092,2.6092,0,0,0-1.2161-.51c-1.5026-.2631-3.0232-0.4391-4.21.8426a2.715,2.715,0,0,0-.8377,2.0492c0.0293,0.4749.0053,0.953,0.0053,1.3312a5.9766,5.9766,0,0,0,3.7813,2.8337,27.5959,27.5959,0,0,1,3.81,1.5047,5.3076,5.3076,0,0,1,2.7894,2.7446,4.1147,4.1147,0,0,1,.4235,1.7439,7.155,7.155,0,0,1-.2385,2.54,4.8283,4.8283,0,0,1-2.1111,2.5851,5.219,5.219,0,0,1-2.75.8861,1.945,1.945,0,0,1-1.8066.1982,13.17,13.17,0,0,1-3.11-.8833,6.8816,6.8816,0,0,1-2.4519-2.349,19.4363,19.4363,0,0,1-1.0364-2.1181l2.0906-.6716a5.8487,5.8487,0,0,0,3.7844,4.1438c0.444,0,1.0815-.021,1.7173.004a3.9836,3.9836,0,0,0,3.7181-2.2586,5.3655,5.3655,0,0,0,.2624-0.6256,5.8659,5.8659,0,0,0-.2136-2.0462,3.1534,3.1534,0,0,0-1.5091-1.7924,14.4525,14.4525,0,0,0-1.3823-.7139c-1.2306-.502-2.4839-0.9487-3.7138-1.4524a6.605,6.605,0,0,1-3.51-2.5034,7.8105,7.8105,0,0,1-.6192-1.6634,3.1715,3.1715,0,0,1,.0693-1.6909,8.8878,8.8878,0,0,1,.5751-1.93,5.2152,5.2152,0,0,1,2.8666-2.2725,3.2494,3.2494,0,0,1,1.2129-.2435,9.1134,9.1134,0,0,1,2.3863.0365C507.3231,62.069,507.7674,62.1162,508.1872,62.1991Z" transform="translate(-19.6992 -18.4371)"/><path class="cls-1" d="M441.6012,79.1455a12.6726,12.6726,0,0,0,.717-5.5271c0.0056-3.791.0017-7.582,0.0017-11.4907,0.71,0.14,1.4137-.185,2.0421.2214-0.0445.4943-.1163,0.9257-0.1171,1.3573q-0.0124,6.7124-.0022,13.4248a5.6169,5.6169,0,0,1-1.59,3.7785,4.6152,4.6152,0,0,1-2.1617,1.44,7.4176,7.4176,0,0,1-1.06.3276,12.2749,12.2749,0,0,1-2.7284.3534,0.7006,0.7006,0,0,1-.264-0.2241l-0.2872.2673a1.4441,1.4441,0,0,0-.5883-0.2575,5.4173,5.4173,0,0,1-2.2011-.4926,7.0229,7.0229,0,0,1-2.1105-1.5425,6.1092,6.1092,0,0,1-1.3189-2.5857,2.5936,2.5936,0,0,1-.09-0.9206c-0.0048-4.9944-.0034-9.9887-0.0034-15.0824,0.6064-.07,1.224-0.0134,1.92-0.0394v1.2124q0,6.5926,0,13.1853a4.524,4.524,0,0,0,1.0357,3.0284A3.1283,3.1283,0,0,0,434.59,80.71c1.11,0.76,2.362.3,3.5471,0.3967a2.8263,2.8263,0,0,0,1.6871-.5288A16.9717,16.9717,0,0,0,441.6012,79.1455Z" transform="translate(-19.6992 -18.4371)"/><path class="cls-1" d="M480.24,75.5564c0,0.7226-.0318,1.5233.0072,2.32a4,4,0,0,1-1.3433,3.2935,5.3317,5.3317,0,0,1-2.503,1.5009,8.0561,8.0561,0,0,1-2.1244.34,8.4284,8.4284,0,0,1-3.81-.9135,6.58,6.58,0,0,1-3.0012-3.3093c-0.1286-.3064-0.2886-0.6-0.4213-0.9044a0.94,0.94,0,0,1-.0043-0.296l1.7943-.6367a7.8471,7.8471,0,0,0,1.8457,2.914,4.0928,4.0928,0,0,0,3.0833,1.2609c0.597-.037,1.1981-0.0064,1.6421-0.0064,1.3084-.5807,2.5176-1.0992,2.9147-2.514,0-.4787-0.026-0.959.0049-1.4356a2.7688,2.7688,0,0,0-1.7258-2.767,24.0476,24.0476,0,0,0-3.3443-1.4815,12.9889,12.9889,0,0,1-3.613-1.668,4.0712,4.0712,0,0,1-1.9293-2.5092,9.2924,9.2924,0,0,1-.0121-3.071,4.3948,4.3948,0,0,1,1.9129-2.77,4.98,4.98,0,0,1,3.1821-.9846,10.1969,10.1969,0,0,1,2.5464.2132,5.8944,5.8944,0,0,1,2.28,1.1469c1.19,1.0764,1.2189,1.1737,2.1615,3.3595l-1.7513.63c-0.5955-.9112-0.8134-1.9616-1.6611-2.6207a4.8143,4.8143,0,0,0-2.5642-1.0423c-0.3567-.032-0.7235.0329-1.0775-0.0118-1.5048-.19-3.4409,1.8765-3.3132,3.3091a3.2218,3.2218,0,0,0,1.5659,2.7085,17.2778,17.2778,0,0,0,4.2513,1.8984,15.3432,15.3432,0,0,1,3.6509,1.8945,4.6293,4.6293,0,0,1,1.115,1.6961C480.0728,75.23,480.139,75.3643,480.24,75.5564Z" transform="translate(-19.6992 -18.4371)"/><path class="cls-1" d="M370.8247,63.7977v7.2141h6.8824v1.6943h-6.8613v8.0956c-0.02-.0222.0025,0.0122,0.0334,0.0347a0.1911,0.1911,0,0,0,.1015.0418c3.3541,0.0019,6.7081.0017,10.1007,0.0017v1.6237h-12.41V62.2094h11.9437v1.5882h-9.7905Z" transform="translate(-19.6992 -18.4371)"/><path class="cls-1" d="M406.56,67.8195l-1.58.5006c-0.3339-.7305-0.6951-1.5262-1.0607-2.32a4.1558,4.1558,0,0,0-3.83-2.4015,4.5989,4.5989,0,0,0-2.8288.7058,3.9093,3.9093,0,0,0-1.4766,1.45,17.2608,17.2608,0,0,0-1.0764,2.3123c-0.1778.5058,0.0816,1.11-.3874,1.5151,0.1717,1.1438-.3521,2.2418-0.231,3.3768a4.5741,4.5741,0,0,1,.2259,1.579,4.74,4.74,0,0,0,.2669,1.6979,4.9337,4.9337,0,0,0,.4675,1.478,5.7788,5.7788,0,0,0,2.31,2.7532,4.1374,4.1374,0,0,0,2.4907.6608c0.5154-.0418,1.037-0.0075,1.3893-0.0075a5.8654,5.8654,0,0,0,2.7385-1.8794,7.7318,7.7318,0,0,0,1.1987-2.8572c0.6333-.2689,1.1835.16,1.7785,0.2115a0.9093,0.9093,0,0,1-.151.9455,7.6787,7.6787,0,0,1-3.2089,4.5431,10.3273,10.3273,0,0,1-1.7653.6752,4.3455,4.3455,0,0,1-2.0388.2577,8.29,8.29,0,0,1-4.0533-1.1882A6.7107,6.7107,0,0,1,393.6,79.417a12.64,12.64,0,0,1-1.2517-3.93,24.7662,24.7662,0,0,1-.1446-5.3033,11.0893,11.0893,0,0,1,1.685-5.2765,6.2352,6.2352,0,0,1,2.6816-2.4143,4.4178,4.4178,0,0,1,2.28-.5822c0.5142,0.0526,1.0383.0027,1.5577,0.011a6.226,6.226,0,0,1,4.2071,1.7347,7.6622,7.6622,0,0,1,1.9383,3.646A1.8644,1.8644,0,0,1,406.56,67.8195Z" transform="translate(-19.6992 -18.4371)"/><path class="cls-1" d="M484.8185,82.5213v-20.32h11.6941a13.0385,13.0385,0,0,1,.0613,1.6015h-9.7952v7.205h7.0331c-0.0216.5618-.4058,1.1094,0.1918,1.6758h-7.2468V80.848h10.4877a1.5825,1.5825,0,0,0,.0422,1.6732H484.8185Z" transform="translate(-19.6992 -18.4371)"/><path class="cls-1" d="M325.4784,62.181h2.0826V80.8375c1.5342,0.0913,3.0366.028,4.5364,0.04,1.5133,0.012,3.0269.0026,4.5813,0.0026v1.6206h-11.2V62.181Z" transform="translate(-19.6992 -18.4371)"/><path class="cls-1" d="M340.36,62.1848h1.88v1.1713q0,8.9876.0076,17.9751a1.1327,1.1327,0,0,0,.3668,1.2079c-0.8278.0388-1.5214,0.0094-2.2548,0.0251V62.1848Z" transform="translate(-19.6992 -18.4371)"/></svg>